<?xml version="1.0" encoding="UTF-8"?>
<svg id="Camada_1" data-name="Camada 1" xmlns="http://www.w3.org/2000/svg" viewBox="0 0 247 69">
  <defs>
    <style>
      .cls-1 {
        fill: #fff;
      }

      .cls-1, .cls-2 {
        stroke-width: 0px;
      }

      .cls-2 {
        fill: #d8d8d8;
      }
    </style>
  </defs>
  <g>
    <path class="cls-1" d="m164.02,17.89c-.59.31-1.83.61-3.4.61-3.62,0-6.33-2.29-6.33-6.52s2.73-6.75,6.72-6.75c1.58,0,2.61.34,3.05.57l-.42,1.35c-.61-.31-1.51-.53-2.57-.53-3.02,0-5.02,1.93-5.02,5.3,0,3.17,1.81,5.17,4.92,5.17,1.03,0,2.06-.21,2.73-.53l.32,1.34Z"/>
    <path class="cls-1" d="m176.71,11.73c0,4.41-2.69,6.77-5.97,6.77s-5.78-2.65-5.78-6.54c0-4.08,2.52-6.75,5.95-6.75s5.8,2.69,5.8,6.52Zm-10,.19c0,2.77,1.49,5.23,4.12,5.23s4.12-2.42,4.12-5.34c0-2.58-1.34-5.25-4.1-5.25s-4.14,2.56-4.14,5.36Z"/>
    <path class="cls-1" d="m178.87,18.29V5.43h1.83l4.1,6.51c.93,1.51,1.7,2.86,2.29,4.18l.06-.02c-.15-1.72-.19-3.28-.19-5.28v-5.38h1.56v12.86h-1.68l-4.08-6.52c-.9-1.43-1.76-2.9-2.39-4.29l-.06.02c.09,1.62.11,3.17.11,5.3v5.49h-1.56Z"/>
    <path class="cls-1" d="m191.21,16.27c.74.48,1.81.84,2.96.84,1.7,0,2.69-.9,2.69-2.19,0-1.18-.69-1.89-2.42-2.54-2.1-.76-3.4-1.87-3.4-3.66,0-2,1.66-3.49,4.16-3.49,1.3,0,2.27.31,2.82.63l-.46,1.35c-.4-.25-1.26-.61-2.42-.61-1.76,0-2.42,1.05-2.42,1.93,0,1.2.78,1.79,2.56,2.48,2.17.84,3.26,1.89,3.26,3.78,0,1.98-1.45,3.72-4.48,3.72-1.24,0-2.59-.38-3.28-.84l.44-1.39Z"/>
    <path class="cls-1" d="m207.47,12.26h-4.98v4.64h5.57v1.39h-7.25V5.43h6.96v1.39h-5.28v4.06h4.98v1.37Z"/>
    <path class="cls-1" d="m210.2,5.43h1.68v11.47h5.49v1.39h-7.17V5.43Z"/>
    <path class="cls-1" d="m220.89,5.43v5.38h6.22v-5.38h1.68v12.86h-1.68v-6.03h-6.22v6.03h-1.68V5.43h1.68Z"/>
    <path class="cls-1" d="m242.66,11.73c0,4.41-2.69,6.77-5.97,6.77s-5.78-2.65-5.78-6.54c0-4.08,2.52-6.75,5.95-6.75s5.8,2.69,5.8,6.52Zm-10,.19c0,2.77,1.49,5.23,4.12,5.23s4.12-2.42,4.12-5.34c0-2.58-1.34-5.25-4.1-5.25s-4.14,2.56-4.14,5.36Z"/>
    <path class="cls-1" d="m155.05,41.19v-12.86h1.83l4.1,6.51c.93,1.51,1.7,2.86,2.29,4.18l.06-.02c-.15-1.72-.19-3.28-.19-5.28v-5.38h1.56v12.86h-1.68l-4.08-6.52c-.9-1.43-1.76-2.9-2.38-4.29l-.06.02c.1,1.62.11,3.17.11,5.3v5.49h-1.56Z"/>
    <path class="cls-1" d="m169.69,37.15l-1.34,4.04h-1.72l4.39-12.86h1.98l4.39,12.86h-1.77l-1.37-4.04h-4.56Zm4.24-1.3l-1.28-3.7c-.29-.84-.48-1.6-.67-2.35h-.04c-.19.74-.38,1.54-.65,2.33l-1.26,3.72h3.89Z"/>
    <path class="cls-1" d="m187.97,40.79c-.59.31-1.83.61-3.4.61-3.62,0-6.33-2.29-6.33-6.52s2.73-6.75,6.72-6.75c1.58,0,2.61.34,3.05.57l-.42,1.35c-.61-.31-1.51-.53-2.58-.53-3.01,0-5.02,1.93-5.02,5.3,0,3.17,1.81,5.17,4.92,5.17,1.03,0,2.06-.21,2.73-.53l.32,1.33Z"/>
    <path class="cls-1" d="m191.73,28.33v12.86h-1.68v-12.86h1.68Z"/>
    <path class="cls-1" d="m205.62,34.63c0,4.41-2.69,6.77-5.97,6.77s-5.78-2.65-5.78-6.54c0-4.08,2.52-6.75,5.95-6.75s5.8,2.69,5.8,6.52Zm-10,.19c0,2.77,1.49,5.23,4.12,5.23s4.12-2.42,4.12-5.34c0-2.58-1.34-5.25-4.1-5.25s-4.14,2.56-4.14,5.36Z"/>
    <path class="cls-1" d="m207.78,41.19v-12.86h1.83l4.1,6.51c.93,1.51,1.7,2.86,2.29,4.18l.06-.02c-.15-1.72-.19-3.28-.19-5.28v-5.38h1.56v12.86h-1.68l-4.08-6.52c-.9-1.43-1.75-2.9-2.38-4.29l-.06.02c.1,1.62.11,3.17.11,5.3v5.49h-1.56Z"/>
    <path class="cls-1" d="m222.42,37.15l-1.33,4.04h-1.72l4.39-12.86h1.98l4.39,12.86h-1.77l-1.37-4.04h-4.56Zm4.24-1.3l-1.28-3.7c-.29-.84-.48-1.6-.67-2.35h-.04c-.19.74-.38,1.54-.65,2.33l-1.26,3.72h3.89Z"/>
    <path class="cls-1" d="m232,28.33h1.68v11.47h5.49v1.39h-7.17v-12.86Z"/>
    <path class="cls-1" d="m155.05,51.42c1.01-.17,2.21-.29,3.53-.29,2.38,0,4.08.57,5.21,1.6,1.16,1.05,1.83,2.54,1.83,4.62s-.67,3.82-1.85,5c-1.22,1.2-3.21,1.85-5.71,1.85-1.2,0-2.17-.06-3.01-.15v-12.63Zm1.66,11.37c.42.06,1.03.08,1.68.08,3.57,0,5.48-1.98,5.48-5.46.02-3.03-1.7-4.96-5.21-4.96-.86,0-1.51.08-1.95.17v10.17Z"/>
    <path class="cls-1" d="m174.4,58.06h-4.98v4.64h5.57v1.39h-7.25v-12.86h6.96v1.39h-5.28v4.06h4.98v1.37Z"/>
    <path class="cls-1" d="m183.81,51.23h1.68v8.6c0,3.42-1.68,4.46-3.89,4.46-.63,0-1.37-.13-1.77-.31l.23-1.35c.34.13.84.25,1.41.25,1.49,0,2.35-.67,2.35-3.19v-8.47Z"/>
    <path class="cls-1" d="m189.92,51.23v7.63c0,2.86,1.28,4.08,2.99,4.08,1.89,0,3.13-1.26,3.13-4.08v-7.63h1.68v7.52c0,3.95-2.08,5.55-4.87,5.55-2.63,0-4.62-1.49-4.62-5.49v-7.57h1.68Z"/>
    <path class="cls-1" d="m200.39,62.07c.74.48,1.81.84,2.96.84,1.7,0,2.69-.9,2.69-2.19,0-1.18-.69-1.89-2.42-2.54-2.1-.76-3.4-1.87-3.4-3.66,0-2,1.66-3.49,4.16-3.49,1.3,0,2.27.31,2.82.63l-.46,1.35c-.4-.25-1.26-.61-2.42-.61-1.75,0-2.42,1.05-2.42,1.93,0,1.2.78,1.79,2.56,2.48,2.17.84,3.26,1.89,3.26,3.78,0,1.98-1.45,3.72-4.48,3.72-1.24,0-2.6-.38-3.28-.84l.44-1.39Z"/>
    <path class="cls-1" d="m212.45,52.64h-3.91v-1.41h9.52v1.41h-3.93v11.45h-1.68v-11.45Z"/>
    <path class="cls-1" d="m221.15,51.23v12.86h-1.68v-12.86h1.68Z"/>
    <path class="cls-1" d="m233.04,63.67c-.57.31-1.76.59-3.34.61l-.48.76c.73.13,1.34.65,1.34,1.41,0,1.13-.97,1.55-1.97,1.55-.5,0-1.01-.13-1.35-.32l.27-.86c.29.17.67.27,1.05.27.44,0,.82-.17.82-.59,0-.5-.59-.71-1.49-.82l.8-1.45c-3.15-.36-5.4-2.58-5.4-6.45s2.73-6.75,6.73-6.75c1.58,0,2.61.34,3.03.57l-.4,1.36c-.63-.31-1.53-.54-2.59-.54-3.02,0-5.02,1.93-5.02,5.3,0,3.17,1.81,5.17,4.94,5.17,1.01,0,2.04-.21,2.73-.53l.32,1.32Z"/>
    <path class="cls-1" d="m237.37,60.04l-1.33,4.04h-1.72l4.39-12.86h1.98l4.39,12.86h-1.77l-1.37-4.04h-4.56Zm4.24-1.3l-1.28-3.7c-.29-.84-.48-1.6-.67-2.35h-.04c-.19.74-.38,1.55-.65,2.33l-1.26,3.72h3.89Z"/>
  </g>
  <g>
    <path class="cls-1" d="m1.95,35.29c.06,1.74.21,3.37.42,4.92,3.23,23.96,23.09,26.25,33.18,26.25,10.73,0,15.23-2.06,15.23-2.06v-10.57s-6.41,3.11-13.33,3.11-21.85-4.64-21.99-21.59v-.22c0-17.14,10.73-23.72,20.78-23.72s14.54,4.16,14.54,4.16V4.3s-3.3-3.3-13.16-3.3C24.81,1,.92,6.75,1.95,35.29Z"/>
    <path class="cls-1" d="m96.5,21.72v24.66s-3.46-2.43-9.18-12.46c-1.8-3.19-4.62-7.16-8.04-11.15-7.39-8.59-17.69-17.28-27.28-18.47v60.78h12.64V24.39s7.86,7.07,15.82,20.88c12.04,18.79,22.62,20.04,29.54,21.27V2.05h-13.5v19.67Z"/>
    <path class="cls-1" d="m124.24,2.05v47.45s-.18,8.32-13.16,5.72v11.42s3.81.87,8.83.87,17.84-3.46,17.84-18V2.05h-13.5Z"/>
  </g>
  <g>
    <path class="cls-2" d="m1.95,35.29c.06,1.74.21,3.37.42,4.92,3.19-1.34,7.58-3.04,13.09-4.86v-.22c0-17.14,10.73-23.72,20.78-23.72s14.54,4.16,14.54,4.16V4.3s-3.3-3.3-13.16-3.3C24.81,1,.92,6.75,1.95,35.29Z"/>
    <path class="cls-2" d="m51.99,4.3v22.01c8.25-1.45,17.34-2.68,27.28-3.54-7.39-8.59-17.69-17.28-27.28-18.47Z"/>
    <path class="cls-2" d="m96.5,21.72c4.96-.19,9.44-.25,13.5-.21V2.05h-13.5v19.67Z"/>
    <path class="cls-2" d="m124.24,2.05v20.2c5.86.57,10.23,1.44,13.5,2.42V2.05h-13.5Z"/>
  </g>
</svg>